<svg id="Layer_1" data-name="Layer 1" xmlns="http://www.w3.org/2000/svg" viewBox="0 0 100 100"><defs><style>.cls-1{fill:#f0f2ff;}.cls-2{fill:#fff;}.cls-3{fill:none;}.cls-3,.cls-5{stroke:#4550e5;stroke-linejoin:round;}.cls-4,.cls-5{fill:#d6daff;}</style></defs><title>color-palette</title><circle class="cls-1" cx="50" cy="50" r="40"/><path class="cls-2" d="M72.07,51.53H45.9V66.2a2,2,0,0,1-2,2H72.07a2,2,0,0,0,2-2V53.54A2,2,0,0,0,72.07,51.53Z"/><path class="cls-3" d="M72.07,51.53H45.9V66.2a2,2,0,0,1-2,2H72.07a2,2,0,0,0,2-2V53.54A2,2,0,0,0,72.07,51.53Z"/><rect class="cls-4" x="59.7" y="54.98" width="10.35" height="9.77" rx="1.15" ry="1.15"/><rect class="cls-3" x="59.7" y="54.98" width="10.35" height="9.77" rx="1.15" ry="1.15"/><path class="cls-4" d="M45.9,55v9.78h8.63a1.16,1.16,0,0,0,1.15-1.15V56.13A1.16,1.16,0,0,0,54.53,55Z"/><path class="cls-3" d="M45.9,55v9.78h8.63a1.16,1.16,0,0,0,1.15-1.15V56.13A1.16,1.16,0,0,0,54.53,55Z"/><path class="cls-2" d="M71.84,50.13a2,2,0,0,0,.73-2.74l-6.35-11a2,2,0,0,0-2.74-.73L45.9,45.89V65.16Z"/><path class="cls-3" d="M71.84,50.13a2,2,0,0,0,.73-2.74l-6.35-11a2,2,0,0,0-2.74-.73L45.9,45.89V65.16Z"/><rect class="cls-4" x="56.26" y="41.64" width="10.35" height="9.78" rx="1.15" ry="1.15" transform="translate(-15.05 37.08) rotate(-30.1)"/><rect class="cls-3" x="56.26" y="41.64" width="10.35" height="9.78" rx="1.15" ry="1.15" transform="translate(-15.05 37.08) rotate(-30.1)"/><path class="cls-4" d="M50,47.49,45.9,49.88v8.84l.49.84A1.15,1.15,0,0,0,48,60l7-4a1.14,1.14,0,0,0,.42-1.57L51.6,47.91A1.15,1.15,0,0,0,50,47.49Z"/><path class="cls-3" d="M50,47.49,45.9,49.88v8.84l.49.84A1.15,1.15,0,0,0,48,60l7-4a1.14,1.14,0,0,0,.42-1.57L51.6,47.91A1.15,1.15,0,0,0,50,47.49Z"/><path class="cls-2" d="M62.28,34.19a2,2,0,0,0-.73-2.74l-11-6.34a2,2,0,0,0-2.74.73L45.9,29.19V62.5Z"/><polygon class="cls-2" points="45.9 62.39 45.9 62.5 46.67 61.16 45.9 62.39"/><path class="cls-3" d="M62.28,34.19a2,2,0,0,0-.73-2.74l-11-6.34a2,2,0,0,0-2.74.73L45.9,29.19V62.5Z"/><path class="cls-4" d="M45.9,36.08V39l6.2,3.58a1.14,1.14,0,0,0,1.57-.42l4-7a1.14,1.14,0,0,0-.42-1.57l-6.47-3.75a1.15,1.15,0,0,0-1.57.42Z"/><path class="cls-4" d="M45.9,55.61l4.61-8a1.16,1.16,0,0,0-.42-1.57L45.9,43.66Z"/><path class="cls-3" d="M45.9,55.61l4.61-8a1.16,1.16,0,0,0-.42-1.57L45.9,43.66Z"/><path class="cls-3" d="M45.9,36.08V39l6.2,3.58a1.14,1.14,0,0,0,1.57-.42l4-7a1.14,1.14,0,0,0-.42-1.57l-6.47-3.75a1.15,1.15,0,0,0-1.57.42Z"/><rect class="cls-2" x="29.23" y="23.36" width="16.67" height="44.85" rx="2" ry="2"/><rect class="cls-3" x="29.23" y="23.36" width="16.67" height="44.85" rx="2" ry="2"/><rect class="cls-4" x="32.68" y="27.38" width="9.77" height="10.35" rx="1.15" ry="1.15"/><rect class="cls-3" x="32.68" y="27.38" width="9.77" height="10.35" rx="1.15" ry="1.15"/><rect class="cls-4" x="32.68" y="41.76" width="9.77" height="10.35" rx="1.15" ry="1.15"/><rect class="cls-3" x="32.68" y="41.76" width="9.77" height="10.35" rx="1.15" ry="1.15"/><circle class="cls-5" cx="37.57" cy="62.46" r="1.73"/><ellipse class="cls-4" cx="51.65" cy="75.58" rx="23" ry="1.73"/></svg>