<svg id="Layer_1" data-name="Layer 1" xmlns="http://www.w3.org/2000/svg" viewBox="0 0 100 100"><defs><style>.cls-1{fill:#f0f2ff;}.cls-2,.cls-9{fill:none;}.cls-2,.cls-4,.cls-6,.cls-7,.cls-8,.cls-9{stroke:#4550e5;stroke-linejoin:round;}.cls-2,.cls-4,.cls-6{stroke-linecap:round;}.cls-3,.cls-4,.cls-8{fill:#fff;}.cls-5,.cls-6,.cls-7{fill:#d6daff;}</style></defs><title>customer-service-woman</title><path class="cls-1" d="M90,55.25A40,40,0,1,0,13.56,71.76H86.44A39.93,39.93,0,0,0,90,55.25Z"/><line class="cls-2" x1="11" y1="71.76" x2="89" y2="71.76"/><line class="cls-2" x1="6.5" y1="71.76" x2="9" y2="71.76"/><line class="cls-2" x1="91" y1="71.76" x2="93.5" y2="71.76"/><ellipse class="cls-1" cx="42.44" cy="83.25" rx="18" ry="1.5"/><path class="cls-3" d="M63.4,50.15a6,6,0,0,0,6-6v-12a12,12,0,0,0-12.8-12A12.26,12.26,0,0,0,45.4,32.56V44.15a6,6,0,0,0,6,6Z"/><path class="cls-2" d="M63.4,50.15a6,6,0,0,0,6-6v-12a12,12,0,0,0-12.8-12A12.26,12.26,0,0,0,45.4,32.56V44.15a6,6,0,0,0,6,6Z"/><path class="cls-3" d="M57.4,48.35A15.6,15.6,0,0,0,41.8,64v4.2c0,7.91-2.81,9-5.92,9H33.4v5.4h2.48c4.36,0,11.92-3.63,11.92-10.8H67c0,4.56-3.36,5.4-5.92,5.4H58.6v5.4h2.48C66,82.55,73,81.5,73,71.75V64A15.59,15.59,0,0,0,57.4,48.35Z"/><path class="cls-2" d="M57.4,48.35A15.6,15.6,0,0,0,41.8,64v4.2c0,7.91-2.81,9-5.92,9H33.4v5.4h2.48c4.36,0,11.92-3.63,11.92-10.8H67c0,4.56-3.36,5.4-5.92,5.4H58.6v5.4h2.48C66,82.55,73,81.5,73,71.75V64A15.59,15.59,0,0,0,57.4,48.35Z"/><line class="cls-2" x1="47.8" y1="64.55" x2="47.8" y2="71.75"/><line class="cls-2" x1="67" y1="64.55" x2="67" y2="71.75"/><path class="cls-4" d="M58.6,82H56.8a2.4,2.4,0,1,1,0-4.8h1.8Z"/><path class="cls-4" d="M33.4,82H31.6a2.4,2.4,0,1,1,0-4.8h1.8Z"/><line class="cls-2" x1="57.4" y1="56.15" x2="57.4" y2="71.75"/><polygon class="cls-3" points="61 48.95 57.4 56.15 53.8 48.95 53.8 45.95 61 45.95 61 48.95"/><polygon class="cls-2" points="61 48.95 57.4 56.15 53.8 48.95 53.8 45.95 61 45.95 61 48.95"/><path class="cls-4" d="M51.78,54.48a1,1,0,0,0,.81.39,1,1,0,0,0,.79-.42l1.8-2.5a1,1,0,0,0,0-1.19l-1.48-2a15.6,15.6,0,0,0-4.71,2Z"/><path class="cls-4" d="M63,54.48a1,1,0,0,1-1.6,0L59.63,52a1,1,0,0,1,0-1.19l1.48-2a15.65,15.65,0,0,1,4.72,2Z"/><path class="cls-4" d="M67.6,35.15v-2.4c0-.28,0-.56,0-.83A10.78,10.78,0,0,1,53.94,29.5,6.1,6.1,0,0,1,48.4,34a5.32,5.32,0,0,1-1.2-.14v1.34A1.81,1.81,0,0,0,45.4,37v.6a1.81,1.81,0,0,0,1.8,1.8l.17,0a10.19,10.19,0,0,0,20.07,0l.16,0a1.8,1.8,0,0,0,1.8-1.8V37A1.8,1.8,0,0,0,67.6,35.15Z"/><path class="cls-5" d="M52.6,39.35a1.2,1.2,0,1,1-1.2-1.2A1.2,1.2,0,0,1,52.6,39.35Z"/><path class="cls-5" d="M64.6,39.35a1.2,1.2,0,1,1-1.2-1.2A1.2,1.2,0,0,1,64.6,39.35Z"/><path class="cls-2" d="M54.4,41.75a4.35,4.35,0,0,0,6,0"/><path class="cls-2" d="M62.8,36.35a1.63,1.63,0,0,0-3,0"/><path class="cls-2" d="M55,36.15a1.63,1.63,0,0,0-3,0"/><path class="cls-2" d="M43,39.35v1.8a5.4,5.4,0,0,0,5.4,5.4h3"/><path class="cls-4" d="M44.2,34.55h2.4a0,0,0,0,1,0,0v6a0,0,0,0,1,0,0H44.2a1.2,1.2,0,0,1-1.2-1.2v-3.6A1.2,1.2,0,0,1,44.2,34.55Z"/><path class="cls-6" d="M45.4,39.35a1.2,1.2,0,1,0,2.4,0v-3.6a1.2,1.2,0,1,0-2.4,0Z"/><path class="cls-4" d="M69.4,34.55h2.4a0,0,0,0,1,0,0v6a0,0,0,0,1,0,0H69.4a1.2,1.2,0,0,1-1.2-1.2v-3.6A1.2,1.2,0,0,1,69.4,34.55Z" transform="translate(140 75.1) rotate(180)"/><path class="cls-6" d="M69.4,39.35a1.2,1.2,0,1,1-2.4,0v-3.6a1.2,1.2,0,0,1,2.4,0Z"/><path class="cls-6" d="M55,46.55a1.8,1.8,0,1,1-1.8-1.8A1.81,1.81,0,0,1,55,46.55Z"/><path class="cls-2" d="M43,37.55v-5.4a14.4,14.4,0,0,1,28.8,0v5.4"/><path class="cls-7" d="M46.13,80.25h2.23L43.59,65.44a1,1,0,0,0-1-.69H41.13Z"/><path class="cls-5" d="M26.63,80.25h19.5l-5-15.5H23a1,1,0,0,0-.95,1.31Z"/><path class="cls-7" d="M26.63,80.25h20.5v2.5H28.63a2,2,0,0,1-2-2Z"/><path class="cls-7" d="M47.13,80.25h9a.5.5,0,0,1,.5.5,2,2,0,0,1-2,2H47.13Z"/><path class="cls-8" d="M35,72A1.14,1.14,0,0,1,35.5,71a1.13,1.13,0,0,0-.9-.48c-.38,0-.75.22-.94.22s-.49-.22-.81-.21a1.2,1.2,0,0,0-1,.61,2.58,2.58,0,0,0,.31,2.48c.21.3.46.63.78.62s.43-.2.8-.2.49.2.81.19.55-.3.76-.6a3.23,3.23,0,0,0,.34-.7A1.06,1.06,0,0,1,35,72Z"/><line class="cls-2" x1="34.13" y1="69.25" x2="34.58" y2="68.8"/><path class="cls-9" d="M26.63,80.25h19.5l-5-15.5H23a1,1,0,0,0-.95,1.31Z"/></svg>