<svg id="Layer_1" data-name="Layer 1" xmlns="http://www.w3.org/2000/svg" viewBox="0 0 100 100"><defs><style>.cls-1{fill:#f0f2ff;}.cls-2{fill:none;}.cls-2,.cls-5,.cls-6,.cls-7,.cls-8{stroke:#4550e5;stroke-linejoin:round;}.cls-2,.cls-5,.cls-6{stroke-linecap:round;}.cls-3,.cls-6,.cls-7{fill:#d6daff;}.cls-4,.cls-5,.cls-8{fill:#fff;}</style></defs><title>monitor-window</title><path class="cls-1" d="M90.5,55.93a40,40,0,1,0-76.44,16.5H86.94A39.88,39.88,0,0,0,90.5,55.93Z"/><line class="cls-2" x1="11" y1="72.43" x2="89" y2="72.43"/><line class="cls-2" x1="6.5" y1="72.43" x2="9" y2="72.43"/><line class="cls-2" x1="91" y1="72.43" x2="93.5" y2="72.43"/><rect class="cls-3" x="23.65" y="41.29" width="48.3" height="34.5" rx="3.6" ry="3.6"/><path class="cls-4" d="M52.86,41.29H27.79a4.14,4.14,0,0,0-4.14,4.14V70.5Z"/><rect class="cls-2" x="23.65" y="41.29" width="48.3" height="34.5" rx="3.6" ry="3.6"/><path class="cls-5" d="M67.81,75.79A4.14,4.14,0,0,0,72,71.65V70.27H23.65v1.38a4.14,4.14,0,0,0,4.14,4.14Z"/><polygon class="cls-4" points="51.94 81.31 43.66 81.31 44.35 75.79 51.25 75.79 51.94 81.31"/><polygon class="cls-2" points="51.94 81.31 43.66 81.31 44.35 75.79 51.25 75.79 51.94 81.31"/><path class="cls-5" d="M56.77,84.07H38.83a2.76,2.76,0,0,1,2.76-2.76H54A2.77,2.77,0,0,1,56.77,84.07Z"/><path class="cls-5" d="M34.69,36.46h40a0,0,0,0,1,0,0V60.28a2.4,2.4,0,0,1-2.4,2.4H37.09a2.4,2.4,0,0,1-2.4-2.4V36.46A0,0,0,0,1,34.69,36.46Z"/><path class="cls-5" d="M37.09,28.18H72.31a2.4,2.4,0,0,1,2.4,2.4v5.88a0,0,0,0,1,0,0h-40a0,0,0,0,1,0,0V30.58A2.4,2.4,0,0,1,37.09,28.18Z"/><circle class="cls-6" cx="38.83" cy="32.32" r="1.38"/><circle class="cls-6" cx="44.35" cy="32.32" r="1.38"/><circle class="cls-6" cx="49.87" cy="32.32" r="1.38"/><rect class="cls-6" x="47.11" y="44.74" width="5.52" height="5.52" rx="1" ry="1"/><rect class="cls-6" x="56.08" y="44.74" width="5.52" height="5.52" rx="1" ry="1"/><rect class="cls-6" x="65.05" y="44.74" width="5.52" height="5.52" rx="1" ry="1"/><rect class="cls-6" x="47.11" y="53.02" width="5.52" height="5.52" rx="1" ry="1"/><rect class="cls-6" x="56.08" y="53.02" width="5.52" height="5.52" rx="1" ry="1"/><rect class="cls-6" x="65.05" y="53.02" width="5.52" height="5.52" rx="1" ry="1"/><rect class="cls-6" x="38.83" y="39.22" width="5.52" height="2.76" rx="1" ry="1"/><rect class="cls-7" x="47.11" y="39.22" width="23.46" height="2.76" rx="1" ry="1"/><line class="cls-2" x1="38.83" y1="44.74" x2="44.35" y2="44.74"/><line class="cls-2" x1="38.83" y1="47.5" x2="44.35" y2="47.5"/><line class="cls-2" x1="38.83" y1="50.26" x2="44.35" y2="50.26"/><line class="cls-2" x1="38.83" y1="53.02" x2="44.35" y2="53.02"/><line class="cls-2" x1="38.83" y1="55.78" x2="44.35" y2="55.78"/><line class="cls-2" x1="38.83" y1="58.54" x2="42.28" y2="58.54"/><path class="cls-8" d="M83.68,73.65c-.2.73-.6.75-.89,0L78.26,62.84c-.29-.7,0-1,.75-.74l10.86,4.52c.7.3.67.7-.06.9l-3.48,1a2.7,2.7,0,0,0-1.7,1.69Z"/><circle class="cls-2" cx="47.8" cy="73.03" r="0.58"/></svg>