<svg id="Layer_1" data-name="Layer 1" xmlns="http://www.w3.org/2000/svg" viewBox="0 0 100 100"><defs><style>.cls-1{fill:#f0f2ff;}.cls-2,.cls-8{fill:none;}.cls-2,.cls-5,.cls-6,.cls-7,.cls-8{stroke:#4550e5;stroke-linejoin:round;}.cls-2,.cls-5{stroke-linecap:round;}.cls-3,.cls-6{fill:#d6daff;}.cls-4,.cls-5,.cls-7{fill:#fff;}</style></defs><title>monitor-loading-progress</title><path class="cls-1" d="M90,55.24a40,40,0,1,0-76.44,16.5H86.44A39.85,39.85,0,0,0,90,55.24Z"/><line class="cls-2" x1="11" y1="71.74" x2="89" y2="71.74"/><line class="cls-2" x1="6.5" y1="71.74" x2="9" y2="71.74"/><line class="cls-2" x1="91" y1="71.74" x2="93.5" y2="71.74"/><ellipse class="cls-1" cx="49.43" cy="83.04" rx="14.85" ry="1.71"/><path class="cls-3" d="M72.28,43.1a3.62,3.62,0,0,0-3.63-3.62H31.35a3.62,3.62,0,0,0-3.63,3.62V67.83H72.28Z"/><path class="cls-4" d="M57.49,39.48H31.35a3.62,3.62,0,0,0-3.63,3.62V67.83h1.42Z"/><polygon class="cls-4" points="55.4 78.63 44.6 78.63 45.27 73.23 54.73 73.23 55.4 78.63"/><polygon class="cls-2" points="55.4 78.63 44.6 78.63 45.27 73.23 54.73 73.23 55.4 78.63"/><path class="cls-5" d="M57.73,81.33H42.27a.84.84,0,0,1-.78-1.17,2.7,2.7,0,0,1,2.43-1.53H56.08a2.7,2.7,0,0,1,2.43,1.53A.84.84,0,0,1,57.73,81.33Z"/><path class="cls-5" d="M68.65,73.23a3.62,3.62,0,0,0,3.63-3.62V67.83H27.72v1.78a3.62,3.62,0,0,0,3.63,3.62Z"/><path class="cls-2" d="M72.28,43.1a3.62,3.62,0,0,0-3.63-3.62H31.35a3.62,3.62,0,0,0-3.63,3.62V67.83H72.28Z"/><path class="cls-2" d="M50.6,70.53a.6.6,0,1,1-.6-.6A.6.6,0,0,1,50.6,70.53Z"/><path class="cls-6" d="M63.39,58.19A2.41,2.41,0,0,1,61,60.61H39a2.42,2.42,0,0,1,0-4.83H61A2.41,2.41,0,0,1,63.39,58.19Z"/><path class="cls-7" d="M55.14,55.78H39a2.42,2.42,0,0,0,0,4.83H55.14Z"/><path class="cls-8" d="M55.14,55.78H39a2.42,2.42,0,0,0,0,4.83H55.14Z"/><path class="cls-4" d="M42.21,23.34a1.22,1.22,0,0,0-1,1.95L49,35.38a1.22,1.22,0,0,0,1.92,0l7.79-10.09a1.22,1.22,0,0,0-1-1.95h-3v-5.6a2.41,2.41,0,0,0-2.41-2.41H47.58a2.41,2.41,0,0,0-2.41,2.41v5.6Z"/><path class="cls-8" d="M42.21,23.34a1.22,1.22,0,0,0-1,1.95L49,35.38a1.22,1.22,0,0,0,1.92,0l7.79-10.09a1.22,1.22,0,0,0-1-1.95h-3v-5.6a2.41,2.41,0,0,0-2.41-2.41H47.58a2.41,2.41,0,0,0-2.41,2.41v5.6Z"/></svg>