<svg id="Layer_1" data-name="Layer 1" xmlns="http://www.w3.org/2000/svg" viewBox="0 0 100 100"><defs><style>.cls-1{fill:#f0f2ff;}.cls-2,.cls-7{fill:none;}.cls-2,.cls-5,.cls-6,.cls-7{stroke:#4550e5;}.cls-2,.cls-5,.cls-6{stroke-linecap:round;stroke-linejoin:round;}.cls-3,.cls-6{fill:#d6daff;}.cls-4,.cls-5{fill:#fff;}.cls-7{stroke-miterlimit:10;}</style></defs><title>monitor-cash-credit-card</title><path class="cls-1" d="M89.89,53.45A40,40,0,1,0,13.46,70H86.33A39.85,39.85,0,0,0,89.89,53.45Z"/><line class="cls-2" x1="10.39" y1="69.95" x2="88.39" y2="69.95"/><line class="cls-2" x1="5.89" y1="69.95" x2="8.39" y2="69.95"/><line class="cls-2" x1="90.39" y1="69.95" x2="92.89" y2="69.95"/><ellipse class="cls-1" cx="50.11" cy="84.97" rx="15.75" ry="1.57"/><path class="cls-3" d="M69.63,71.11V51a2.52,2.52,0,0,0-2.52-2.52h-34A2.52,2.52,0,0,0,30.58,51V71.11Z"/><path class="cls-4" d="M35.62,71.11,58.3,48.43H33.1A2.52,2.52,0,0,0,30.58,51V71.11Z"/><path class="cls-5" d="M69.63,71.11v5a2.52,2.52,0,0,1-2.52,2.52h-34a2.52,2.52,0,0,1-2.52-2.52v-5Z"/><path class="cls-6" d="M51.37,74.89a1.26,1.26,0,1,1-1.26-1.26A1.26,1.26,0,0,1,51.37,74.89Z"/><polygon class="cls-5" points="56.41 83.71 43.8 83.71 44.44 78.67 55.78 78.67 56.41 83.71"/><line class="cls-2" x1="40.03" y1="83.71" x2="60.18" y2="83.71"/><path class="cls-2" d="M69.63,71.11V51a2.52,2.52,0,0,0-2.52-2.52h-34A2.52,2.52,0,0,0,30.58,51V71.11Z"/><path class="cls-4" d="M57.67,59.77a7.56,7.56,0,1,1-7.56-7.56A7.56,7.56,0,0,1,57.67,59.77Z"/><path class="cls-2" d="M57.67,59.77a7.56,7.56,0,1,1-7.56-7.56A7.56,7.56,0,0,1,57.67,59.77Z"/><path class="cls-3" d="M48.85,64.18a1.88,1.88,0,0,1-1.34-.55L45,61.11a1.89,1.89,0,0,1,2.67-2.67l1.19,1.18,3.07-3.07a1.89,1.89,0,0,1,2.67,2.67l-4.41,4.41A1.87,1.87,0,0,1,48.85,64.18Z"/><path class="cls-2" d="M48.85,64.18a1.88,1.88,0,0,1-1.34-.55L45,61.11a1.89,1.89,0,0,1,2.67-2.67l1.19,1.18,3.07-3.07a1.89,1.89,0,0,1,2.67,2.67l-4.41,4.41A1.87,1.87,0,0,1,48.85,64.18Z"/><rect class="cls-4" x="2.84" y="32.05" width="25.2" height="15.12" rx="1.05" ry="1.05" transform="translate(-10.22 5.71) rotate(-15.83)"/><path class="cls-4" d="M25.82,39.29l-1.37-4.85a2.53,2.53,0,0,1-3.12-1.74L6.79,36.82a2.53,2.53,0,0,1-1.74,3.12l1.37,4.85a2.52,2.52,0,0,1,3.12,1.73L24.08,42.4A2.52,2.52,0,0,1,25.82,39.29Z"/><path class="cls-3" d="M17.86,38.92a2.52,2.52,0,1,1-3.11-1.73A2.53,2.53,0,0,1,17.86,38.92Z"/><path class="cls-2" d="M17.86,38.92a2.52,2.52,0,1,1-3.11-1.73A2.53,2.53,0,0,1,17.86,38.92Z"/><path class="cls-2" d="M25.82,39.29l-1.37-4.85a2.53,2.53,0,0,1-3.12-1.74L6.79,36.82a2.53,2.53,0,0,1-1.74,3.12l1.37,4.85a2.52,2.52,0,0,1,3.12,1.73L24.08,42.4A2.52,2.52,0,0,1,25.82,39.29Z"/><rect class="cls-2" x="2.84" y="32.05" width="25.2" height="15.12" rx="1.05" ry="1.05" transform="translate(-10.22 5.71) rotate(-15.83)"/><path class="cls-4" d="M92.82,49.74,75.05,44.65a2.09,2.09,0,0,1-1.44-2.59l3-10.5a2.09,2.09,0,0,1,2.59-1.44L97,35.21a2.1,2.1,0,0,1,1.44,2.59l-3,10.5A2.09,2.09,0,0,1,92.82,49.74Z"/><rect class="cls-3" x="75.72" y="35.04" width="22.68" height="2.52" transform="translate(13.36 -22.57) rotate(15.98)"/><line class="cls-2" x1="76.15" y1="42.35" x2="82.21" y2="44.08"/><rect class="cls-4" x="76.85" y="39.88" width="17.64" height="2.52" transform="translate(14.64 -22) rotate(15.98)"/><path class="cls-2" d="M92.82,49.74,75.05,44.65a2.09,2.09,0,0,1-1.44-2.59l3-10.5a2.09,2.09,0,0,1,2.59-1.44L97,35.21a2.1,2.1,0,0,1,1.44,2.59l-3,10.5A2.09,2.09,0,0,1,92.82,49.74Z"/><rect class="cls-2" x="75.72" y="35.04" width="22.68" height="2.52" transform="translate(13.36 -22.57) rotate(15.98)"/><rect class="cls-2" x="76.85" y="39.88" width="17.64" height="2.52" transform="translate(14.64 -22) rotate(15.98)"/><circle class="cls-3" cx="50.11" cy="29.9" r="8.4"/><path class="cls-4" d="M50.11,21.5a8.4,8.4,0,0,0-5.94,14.34L56.05,24A8.41,8.41,0,0,0,50.11,21.5Z"/><circle class="cls-7" cx="50.11" cy="29.9" r="8.4"/><line class="cls-2" x1="50.11" y1="34.1" x2="50.11" y2="35.15"/><line class="cls-2" x1="50.11" y1="24.65" x2="50.11" y2="25.7"/><path class="cls-2" d="M48,32a2.1,2.1,0,1,0,2.1-2.1,2.1,2.1,0,1,1,2.1-2.1"/></svg>