<svg id="Layer_1" data-name="Layer 1" xmlns="http://www.w3.org/2000/svg" viewBox="0 0 100 100"><defs><style>.cls-1{fill:#f0f2ff;}.cls-2,.cls-5{fill:none;}.cls-2,.cls-3,.cls-5,.cls-7{stroke:#4550e5;stroke-linejoin:round;}.cls-2,.cls-3,.cls-7{stroke-linecap:round;}.cls-3,.cls-6{fill:#d6daff;}.cls-4,.cls-7{fill:#fff;}</style></defs><title>notre-dame</title><path class="cls-1" d="M90,53.68a40,40,0,1,0-76.44,16.5H86.44A39.88,39.88,0,0,0,90,53.68Z"/><line class="cls-2" x1="11" y1="70.18" x2="89" y2="70.18"/><line class="cls-2" x1="6.5" y1="70.18" x2="9" y2="70.18"/><line class="cls-2" x1="91" y1="70.18" x2="93.5" y2="70.18"/><path class="cls-3" d="M64.13,43.61l3.59,6.58a5,5,0,0,1,.61,2.4v12l.81.82a2,2,0,0,1,.59,1.41v3.37h-5.6Z"/><line class="cls-2" x1="65.53" y1="62.51" x2="69.03" y2="62.51"/><path class="cls-3" d="M27.73,43.61l-3.59,6.58a5,5,0,0,0-.61,2.4v12l-.82.82a2,2,0,0,0-.58,1.41v3.37h5.6Z"/><path class="cls-4" d="M79,22.35a1.53,1.53,0,0,0-.6.12,2.79,2.79,0,0,0-5.52,0,1.53,1.53,0,0,0-.6-.12,1.68,1.68,0,0,0,0,3.36H79a1.68,1.68,0,1,0,0-3.36Z"/><path class="cls-5" d="M79,22.35a1.53,1.53,0,0,0-.6.12,2.79,2.79,0,0,0-5.52,0,1.53,1.53,0,0,0-.6-.12,1.68,1.68,0,0,0,0,3.36H79a1.68,1.68,0,1,0,0-3.36Z"/><polygon class="cls-4" points="52.93 17.01 52.93 34.51 38.93 34.51 38.93 17.01 26.33 17.01 26.33 62.51 27.03 63.21 27.03 66.01 26.33 66.71 26.33 70.21 65.53 70.21 65.53 66.01 64.83 65.31 64.83 63.21 65.53 62.51 65.53 17.01 52.93 17.01"/><path class="cls-5" d="M79,22.35a1.53,1.53,0,0,0-.6.12,2.79,2.79,0,0,0-5.52,0,1.53,1.53,0,0,0-.6-.12,1.68,1.68,0,0,0,0,3.36H79a1.68,1.68,0,1,0,0-3.36Z"/><polygon class="cls-2" points="52.93 17.01 52.93 34.51 38.93 34.51 38.93 17.01 26.33 17.01 26.33 62.51 27.03 63.21 27.03 66.01 26.33 66.71 26.33 70.21 65.53 70.21 65.53 66.01 64.83 65.31 64.83 63.21 65.53 62.51 65.53 17.01 52.93 17.01"/><rect class="cls-3" x="26.33" y="52.71" width="39.2" height="4.2"/><path class="cls-3" d="M66.28,34.51H25.57a.35.35,0,0,0-.29.54h0a6.22,6.22,0,0,1,1,3.44v1.62h39.2V38.49a6.21,6.21,0,0,1,1-3.44h0A.35.35,0,0,0,66.28,34.51Z"/><path class="cls-3" d="M45.93,59.71h0a5.57,5.57,0,0,0-3.5,5.17v5.33h7V64.88A5.59,5.59,0,0,0,45.93,59.71Z"/><path class="cls-3" d="M32.63,61.11h0a5.7,5.7,0,0,0-2.8,5.17v3.93h5.6V66.28A5.72,5.72,0,0,0,32.63,61.11Z"/><path class="cls-3" d="M32.63,43.61h0a5.7,5.7,0,0,0-2.8,5.17v3.93h5.6V48.78A5.72,5.72,0,0,0,32.63,43.61Z"/><path class="cls-3" d="M59.23,43.61h0a5.7,5.7,0,0,0-2.8,5.17v3.93H62V48.78A5.72,5.72,0,0,0,59.23,43.61Z"/><path class="cls-3" d="M59.23,61.11h0a5.7,5.7,0,0,0-2.8,5.17v3.93H62V66.28A5.72,5.72,0,0,0,59.23,61.11Z"/><line class="cls-2" x1="38.93" y1="52.71" x2="38.93" y2="61.81"/><line class="cls-2" x1="52.93" y1="52.71" x2="52.93" y2="61.81"/><line class="cls-2" x1="38.93" y1="40.11" x2="38.93" y2="43.61"/><line class="cls-2" x1="52.93" y1="40.11" x2="52.93" y2="43.61"/><path class="cls-3" d="M45.93,42.21h0a5.6,5.6,0,0,0-5.6,5.6v4.9h11.2v-4.9A5.6,5.6,0,0,0,45.93,42.21Z"/><circle class="cls-6" cx="45.93" cy="47.81" r="3.5"/><path class="cls-4" d="M48.43,45.38a3.45,3.45,0,0,0-2.5-1.07,3.49,3.49,0,0,0-1,6.85Z"/><circle class="cls-2" cx="45.93" cy="47.81" r="3.5"/><line class="cls-2" x1="38.93" y1="63.91" x2="38.93" y2="65.31"/><line class="cls-2" x1="52.93" y1="63.91" x2="52.93" y2="65.31"/><line class="cls-2" x1="32.63" y1="56.91" x2="32.63" y2="52.71"/><line class="cls-2" x1="29.13" y1="56.91" x2="29.13" y2="54.81"/><line class="cls-2" x1="36.13" y1="56.91" x2="36.13" y2="54.81"/><line class="cls-2" x1="45.93" y1="56.91" x2="45.93" y2="52.71"/><line class="cls-2" x1="42.43" y1="56.91" x2="42.43" y2="54.81"/><line class="cls-2" x1="49.43" y1="56.91" x2="49.43" y2="54.81"/><line class="cls-2" x1="59.23" y1="56.91" x2="59.23" y2="52.71"/><line class="cls-2" x1="55.73" y1="56.91" x2="55.73" y2="54.81"/><line class="cls-2" x1="62.73" y1="56.91" x2="62.73" y2="54.81"/><path class="cls-7" d="M31.83,35.81l-.6-.6-.6.6a2.72,2.72,0,0,0-.8,1.94v2.36h2.8V37.75A2.76,2.76,0,0,0,31.83,35.81Z"/><path class="cls-7" d="M39.18,35.81l-.6-.6-.6.6a2.72,2.72,0,0,0-.8,1.94v2.36H40V37.75A2.76,2.76,0,0,0,39.18,35.81Z"/><path class="cls-7" d="M46.53,35.81l-.6-.6-.6.6a2.72,2.72,0,0,0-.8,1.94v2.36h2.8V37.75A2.76,2.76,0,0,0,46.53,35.81Z"/><path class="cls-7" d="M53.88,35.81l-.6-.6-.6.6a2.72,2.72,0,0,0-.8,1.94v2.36h2.8V37.75A2.76,2.76,0,0,0,53.88,35.81Z"/><path class="cls-7" d="M60,35.81l.6-.6.6.6a2.76,2.76,0,0,1,.8,1.94v2.36h-2.8V37.75A2.72,2.72,0,0,1,60,35.81Z"/><line class="cls-2" x1="35.43" y1="34.51" x2="35.43" y2="35.91"/><line class="cls-2" x1="28.43" y1="34.51" x2="28.43" y2="35.91"/><line class="cls-2" x1="42.43" y1="34.51" x2="42.43" y2="35.91"/><line class="cls-2" x1="49.43" y1="34.51" x2="49.43" y2="35.91"/><line class="cls-2" x1="56.43" y1="34.51" x2="56.43" y2="35.91"/><line class="cls-2" x1="63.43" y1="34.51" x2="63.43" y2="35.91"/><path class="cls-6" d="M45.54,65.31h.8a1,1,0,0,1,1,1v3.9a0,0,0,0,1,0,0h-2.8a0,0,0,0,1,0,0v-3.9A1,1,0,0,1,45.54,65.31Z"/><path class="cls-4" d="M46.34,65.31h-.8a1,1,0,0,0-1,1v3.9h.2L47.28,66A1,1,0,0,0,46.34,65.31Z"/><path class="cls-2" d="M45.54,65.31h.8a1,1,0,0,1,1,1v3.9a0,0,0,0,1,0,0h-2.8a0,0,0,0,1,0,0v-3.9A1,1,0,0,1,45.54,65.31Z"/><path class="cls-6" d="M29.83,22.61h0A4.78,4.78,0,0,0,28.43,26v8.52h2.8V26A4.83,4.83,0,0,0,29.83,22.61Z"/><path class="cls-4" d="M31.23,27.31V26a4.83,4.83,0,0,0-1.4-3.38h0A4.78,4.78,0,0,0,28.43,26v6Z"/><path class="cls-2" d="M29.83,22.61h0A4.78,4.78,0,0,0,28.43,26v8.52h2.8V26A4.83,4.83,0,0,0,29.83,22.61Z"/><path class="cls-6" d="M35.43,22.61h0A4.78,4.78,0,0,0,34,26v8.52h2.8V26A4.83,4.83,0,0,0,35.43,22.61Z"/><path class="cls-4" d="M36.83,27.31V26a4.83,4.83,0,0,0-1.4-3.38h0A4.78,4.78,0,0,0,34,26v6Z"/><path class="cls-2" d="M35.43,22.61h0A4.78,4.78,0,0,0,34,26v8.52h2.8V26A4.83,4.83,0,0,0,35.43,22.61Z"/><path class="cls-6" d="M56.43,22.61h0A4.78,4.78,0,0,0,55,26v8.52h2.8V26A4.83,4.83,0,0,0,56.43,22.61Z"/><path class="cls-4" d="M57.83,27.31V26a4.83,4.83,0,0,0-1.4-3.38h0A4.78,4.78,0,0,0,55,26v6Z"/><path class="cls-2" d="M56.43,22.61h0A4.78,4.78,0,0,0,55,26v8.52h2.8V26A4.83,4.83,0,0,0,56.43,22.61Z"/><path class="cls-6" d="M62,22.61h0A4.78,4.78,0,0,0,60.63,26v8.52h2.8V26A4.83,4.83,0,0,0,62,22.61Z"/><path class="cls-4" d="M63.43,27.31V26A4.83,4.83,0,0,0,62,22.61h0A4.78,4.78,0,0,0,60.63,26v6Z"/><path class="cls-2" d="M62,22.61h0A4.78,4.78,0,0,0,60.63,26v8.52h2.8V26A4.83,4.83,0,0,0,62,22.61Z"/><line class="cls-2" x1="25.63" y1="19.81" x2="39.63" y2="19.81"/><line class="cls-2" x1="25.63" y1="17.01" x2="39.63" y2="17.01"/><line class="cls-2" x1="52.23" y1="19.81" x2="66.23" y2="19.81"/><line class="cls-2" x1="52.23" y1="17.01" x2="66.23" y2="17.01"/><line class="cls-2" x1="25.63" y1="40.11" x2="66.23" y2="40.11"/><line class="cls-2" x1="22.83" y1="52.71" x2="69.03" y2="52.71"/><line class="cls-2" x1="26.33" y1="62.51" x2="22.83" y2="62.51"/><rect class="cls-3" x="26.33" y="17.01" width="12.6" height="2.8"/><rect class="cls-3" x="52.93" y="17.01" width="12.6" height="2.8"/><line class="cls-2" x1="45.93" y1="44.31" x2="45.93" y2="51.31"/><line class="cls-2" x1="42.43" y1="47.81" x2="49.43" y2="47.81"/><rect class="cls-6" x="29.83" y="48.51" width="5.6" height="4.2"/><polygon class="cls-4" points="29.83 48.51 29.83 52.71 31.93 52.71 34.45 48.51 29.83 48.51"/><rect class="cls-2" x="29.83" y="48.51" width="5.6" height="4.2"/><rect class="cls-6" x="56.43" y="48.51" width="5.6" height="4.2"/><polygon class="cls-4" points="56.43 48.51 56.43 52.71 58.53 52.71 61.05 48.51 56.43 48.51"/><rect class="cls-2" x="56.43" y="48.51" width="5.6" height="4.2"/><rect class="cls-6" x="29.83" y="66.01" width="5.6" height="4.2"/><polygon class="cls-4" points="29.83 66.01 29.83 70.21 31.93 70.21 34.45 66.01 29.83 66.01"/><rect class="cls-2" x="29.83" y="66.01" width="5.6" height="4.2"/><rect class="cls-6" x="56.43" y="66.01" width="5.6" height="4.2"/><polygon class="cls-4" points="56.43 66.01 56.43 70.21 58.53 70.21 61.05 66.01 56.43 66.01"/><rect class="cls-2" x="56.43" y="66.01" width="5.6" height="4.2"/><path class="cls-3" d="M79,62.27c0,2.32-.83,4.33-1.76,4.33s-1.76-2-1.76-4.33,1.76-8.43,1.76-8.43S79,59.94,79,62.27Z"/><line class="cls-2" x1="77.27" y1="66.6" x2="77.27" y2="70.21"/><path class="cls-2" d="M17.2,56a2.74,2.74,0,0,1-5.47,0"/><path class="cls-7" d="M12.75,55h-2a.53.53,0,0,1-.32-.12.42.42,0,0,0,0,.16l.2,1.49a.51.51,0,0,0,.5.43h1.29a.49.49,0,0,0,.49-.43l.2-1.49a.42.42,0,0,0,0-.16A.48.48,0,0,1,12.75,55Z"/><path class="cls-3" d="M11.73,52.84a1.52,1.52,0,0,0-1.51,1.52c0,.44.22.62.5.62h2c.28,0,.5-.18.5-.62A1.52,1.52,0,0,0,11.73,52.84Z"/><path class="cls-7" d="M18.22,55h-2a.48.48,0,0,1-.31-.12.78.78,0,0,0,0,.16l.2,1.49a.51.51,0,0,0,.5.43h1.29a.49.49,0,0,0,.49-.43L18.55,55a.78.78,0,0,0,0-.16A.48.48,0,0,1,18.22,55Z"/><path class="cls-3" d="M17.2,52.84a1.52,1.52,0,0,0-1.51,1.52c0,.44.22.62.5.62h2c.28,0,.5-.18.5-.62A1.52,1.52,0,0,0,17.2,52.84Z"/><line class="cls-2" x1="14.47" y1="58.72" x2="14.47" y2="70.21"/><ellipse class="cls-1" cx="32.97" cy="84.82" rx="13.5" ry="1.5"/><path class="cls-7" d="M38.2,68.64v3.52H21.48a1,1,0,0,0-1,1v8.22a1,1,0,0,0,.85,1l2.39.37h20.2a1,1,0,0,0,1-1V74a15,15,0,0,0-.15-2.12l-.36-2.49a2,2,0,0,0-2-1.72H39.2A1,1,0,0,0,38.2,68.64Z"/><path class="cls-3" d="M27.83,82.74A1.83,1.83,0,1,1,26,80.91,1.83,1.83,0,0,1,27.83,82.74Z"/><path class="cls-3" d="M40.93,82.74a1.83,1.83,0,1,1-1.83-1.83A1.83,1.83,0,0,1,40.93,82.74Z"/><rect class="cls-3" x="30.26" y="76.11" width="3.5" height="6.63"/><rect class="cls-6" x="22.72" y="76.11" width="5.52" height="3.04"/><rect class="cls-2" x="22.72" y="76.11" width="5.52" height="3.04"/><rect class="cls-6" x="35.74" y="76.11" width="3.5" height="3.04"/><rect class="cls-2" x="35.74" y="76.11" width="3.5" height="3.04"/><rect class="cls-6" x="41.42" y="76.11" width="3.5" height="3.04"/><rect class="cls-2" x="41.42" y="76.11" width="3.5" height="3.04"/><path class="cls-6" d="M41.36,72.23h3.45v0l-.35-2.48H41.36a1,1,0,0,0-1,1v.5A1,1,0,0,0,41.36,72.23Z"/><path class="cls-2" d="M41.36,72.23h3.45v0l-.35-2.48H41.36a1,1,0,0,0-1,1v.5A1,1,0,0,0,41.36,72.23Z"/><path class="cls-2" d="M22.84,70.21H38.2a0,0,0,0,1,0,0v1.95a0,0,0,0,1,0,0H21.84a0,0,0,0,1,0,0v-.95A1,1,0,0,1,22.84,70.21Z"/><rect class="cls-2" x="24.63" y="70.21" width="2.33" height="1.95"/><rect class="cls-2" x="29.17" y="70.21" width="2.33" height="1.95"/><rect class="cls-2" x="33.76" y="70.21" width="2.33" height="1.95"/><rect class="cls-3" x="30.26" y="76.11" width="3.5" height="3.04"/><line class="cls-2" x1="22.91" y1="74.14" x2="42.86" y2="74.14"/></svg>