<svg id="Layer_1" data-name="Layer 1" xmlns="http://www.w3.org/2000/svg" viewBox="0 0 100 100"><defs><style>.cls-1{fill:#f0f2ff;}.cls-2{fill:none;}.cls-2,.cls-4{stroke:#4550e5;stroke-linecap:round;stroke-linejoin:round;}.cls-3,.cls-4{fill:#fff;}.cls-5{fill:#d6daff;}</style></defs><title>chip-head</title><path class="cls-1" d="M90.5,61.73a40,40,0,1,0-76.44,16.5H86.94A39.88,39.88,0,0,0,90.5,61.73Z"/><line class="cls-2" x1="11" y1="78.27" x2="89" y2="78.27"/><line class="cls-2" x1="6.5" y1="78.27" x2="9" y2="78.27"/><line class="cls-2" x1="91" y1="78.27" x2="93.5" y2="78.27"/><path class="cls-3" d="M74.07,48.28c0-10-9.41-15.23-18-15.23-12.25,0-18.67,9.44-18.67,20.06,0,6,1.45,10.14,6.69,13.66V78.19H64.19V71.5H69c2.79,0,5.25-1.74,5.25-4.54V61.47s1.74.05,3,0C81.48,61.29,74.07,50,74.07,48.28Z"/><path class="cls-2" d="M74.07,48.28c0-10-9.41-15.23-18-15.23-12.25,0-18.67,9.44-18.67,20.06,0,6,1.45,10.14,6.69,13.66V78.19H64.19V71.5H69c2.79,0,5.25-1.74,5.25-4.54V61.47s1.74.05,3,0C81.48,61.29,74.07,50,74.07,48.28Z"/><path class="cls-4" d="M32.76,30.07A18.39,18.39,0,1,1,34,57.2l-3,3-2.36-2.37,3-3A18.38,18.38,0,0,1,32.76,30.07Z"/><circle class="cls-5" cx="45.81" cy="43.08" r="14.42" transform="translate(-17.04 45.01) rotate(-45)"/><path class="cls-5" d="M26.58,57.53a1.22,1.22,0,0,1,.86-.36,1.2,1.2,0,0,1,.85.36l3,3a1.21,1.21,0,0,1,0,1.71l-9.22,9.21a3.34,3.34,0,0,1-4.73-4.72Z"/><path class="cls-2" d="M26.58,57.53a1.22,1.22,0,0,1,.86-.36,1.2,1.2,0,0,1,.85.36l3,3a1.21,1.21,0,0,1,0,1.71l-9.22,9.21a3.34,3.34,0,0,1-4.73-4.72Z"/><circle class="cls-2" cx="45.81" cy="43.08" r="14.42" transform="translate(-17.04 45.01) rotate(-45)"/><rect class="cls-3" x="40.79" y="38.06" width="10.03" height="10.03" rx="0.84" ry="0.84"/><rect class="cls-2" x="40.79" y="38.06" width="10.03" height="10.03" rx="0.84" ry="0.84"/><line class="cls-2" x1="49.99" y1="38.06" x2="49.99" y2="35.55"/><line class="cls-2" x1="45.81" y1="38.06" x2="45.81" y2="35.55"/><line class="cls-2" x1="41.63" y1="38.06" x2="41.63" y2="35.55"/><line class="cls-2" x1="49.99" y1="50.6" x2="49.99" y2="48.09"/><line class="cls-2" x1="45.81" y1="50.6" x2="45.81" y2="48.09"/><line class="cls-2" x1="41.63" y1="50.6" x2="41.63" y2="48.09"/><line class="cls-2" x1="53.33" y1="38.9" x2="50.83" y2="38.9"/><line class="cls-2" x1="53.33" y1="43.08" x2="50.83" y2="43.08"/><line class="cls-2" x1="53.33" y1="47.26" x2="50.83" y2="47.26"/><line class="cls-2" x1="40.79" y1="38.9" x2="38.29" y2="38.9"/><line class="cls-2" x1="40.79" y1="43.08" x2="38.29" y2="43.08"/><line class="cls-2" x1="40.79" y1="47.26" x2="38.29" y2="47.26"/><line class="cls-2" x1="46.65" y1="44.75" x2="44.14" y2="44.75"/><path class="cls-2" d="M68.15,53.11a.61.61,0,1,1-.61-.61A.6.6,0,0,1,68.15,53.11Z"/></svg>