<svg xmlns="http://www.w3.org/2000/svg" viewBox="0 0 316.603 250"><defs><style>.a{fill:#f0f2ff;}.b,.i{fill:none;}.b,.d,.f,.g,.h,.i{stroke:#4550e5;stroke-linejoin:round;stroke-width:3.598px;}.b,.d,.f{stroke-linecap:round;}.c,.d,.h{fill:#fff;}.e,.f,.g{fill:#d6daff;}</style></defs><g transform="translate(-21.587 -54.91)"><path class="a" d="M323.8,198.776a143.911,143.911,0,1,0-275.013,59.4H310.991a143.659,143.659,0,0,0,12.808-59.4Z"/><line class="b" x2="280.626" transform="translate(39.575 258.176)"/><line class="b" x2="8.994" transform="translate(23.385 258.176)"/><line class="b" x2="8.994" transform="translate(327.396 258.176)"/><ellipse class="a" cx="64.76" cy="5.397" rx="64.76" ry="5.397" transform="translate(87.929 294.117)"/><path class="c" d="M228.1,180.428a21.587,21.587,0,0,0,21.587-21.587V115.668a43.173,43.173,0,0,0-46.051-43.173,44.109,44.109,0,0,0-40.295,44.648v41.7a21.587,21.587,0,0,0,21.587,21.587Z"/><path class="b" d="M228.1,180.428a21.587,21.587,0,0,0,21.587-21.587V115.668a43.173,43.173,0,0,0-46.051-43.173,44.109,44.109,0,0,0-40.295,44.648v41.7a21.587,21.587,0,0,0,21.587,21.587Z"/><path class="c" d="M206.512,173.952a56.125,56.125,0,0,0-56.125,56.305v15.111c0,28.458-10.11,32.38-21.3,32.38h-8.922v19.428h8.922c15.686,0,42.885-13.06,42.885-38.856H241.05c0,16.406-12.088,19.428-21.3,19.428h-8.922v19.428h8.922c17.7-.18,42.885-3.958,42.885-39.036V230.257a56.089,56.089,0,0,0-56.125-56.305Z"/><path class="b" d="M206.512,173.952a56.125,56.125,0,0,0-56.125,56.305v15.111c0,28.458-10.11,32.38-21.3,32.38h-8.922v19.428h8.922c15.686,0,42.885-13.06,42.885-38.856H241.05c0,16.406-12.088,19.428-21.3,19.428h-8.922v19.428h8.922c17.7-.18,42.885-3.958,42.885-39.036V230.257a56.089,56.089,0,0,0-56.125-56.305Z"/><line class="b" y2="25.904" transform="translate(171.973 232.236)"/><line class="b" y2="25.904" transform="translate(241.05 232.236)"/><path class="d" d="M210.829,295.017h-6.476a8.635,8.635,0,0,1,0-17.269h6.476Z"/><path class="d" d="M120.165,295.017h-6.476a8.635,8.635,0,0,1,0-17.269h6.476Z"/><line class="b" y2="56.125" transform="translate(206.512 202.014)"/><path class="c" d="M219.464,176.111l-12.952,25.9-12.952-25.9V165.317h25.9Z"/><path class="b" d="M219.464,176.111l-12.952,25.9-12.952-25.9V165.317h25.9Z"/><path class="d" d="M186.292,196.006a3.572,3.572,0,0,0,5.756-.108l6.476-8.994a3.6,3.6,0,0,0,0-4.281l-5.325-7.2a56.125,56.125,0,0,0-16.945,7.2Z"/><path class="d" d="M226.659,196.006a3.6,3.6,0,0,1-5.756,0l-6.368-8.922a3.6,3.6,0,0,1,0-4.281l5.325-7.2a56.305,56.305,0,0,1,16.981,7.2Z"/><path class="d" d="M243.209,126.461V114.841a38.784,38.784,0,0,1-49.145-8.707,21.946,21.946,0,0,1-19.932,16.19,19.14,19.14,0,0,1-4.317-.5v4.821a6.512,6.512,0,0,0-6.476,6.476v2.159a6.512,6.512,0,0,0,6.476,6.476h.612a36.661,36.661,0,0,0,72.207,0h.576a6.476,6.476,0,0,0,6.476-6.476v-2.159a6.476,6.476,0,0,0-6.476-6.656Z"/><path class="e" d="M189.242,141.572a4.317,4.317,0,1,1-4.317-4.317,4.317,4.317,0,0,1,4.317,4.317Z"/><path class="e" d="M232.415,141.572a4.317,4.317,0,1,1-4.317-4.317A4.317,4.317,0,0,1,232.415,141.572Z"/><path class="b" d="M195.718,150.207a15.65,15.65,0,0,0,21.587,0"/><path class="b" d="M225.94,130.779a5.864,5.864,0,0,0-10.793,0"/><path class="b" d="M197.877,130.059a5.864,5.864,0,0,0-10.793,0"/><path class="b" d="M154.7,141.572v6.476a19.428,19.428,0,0,0,19.428,19.428h10.793"/><path class="d" d="M159.021,124.3h8.635v21.587h-8.635a4.317,4.317,0,0,1-4.317-4.317V128.62A4.317,4.317,0,0,1,159.021,124.3Z"/><path class="f" d="M163.338,141.572a4.317,4.317,0,0,0,8.635,0V128.62a4.317,4.317,0,1,0-8.635,0Z"/><path class="d" d="M249.685,124.3h8.635v21.587h-8.635a4.317,4.317,0,0,1-4.317-4.317V128.62A4.317,4.317,0,0,1,249.685,124.3Z" transform="translate(503.687 270.192) rotate(180)"/><path class="f" d="M249.685,141.572a4.317,4.317,0,1,1-8.635,0V128.62a4.317,4.317,0,1,1,8.635,0Z"/><path class="f" d="M197.877,167.476A6.476,6.476,0,1,1,191.4,161a6.476,6.476,0,0,1,6.476,6.476Z"/><path class="b" d="M154.7,135.1V115.668a51.808,51.808,0,1,1,103.616,0V135.1"/><path class="g" d="M165.965,288.721h8.023l-17.161-53.283a3.6,3.6,0,0,0-3.6-2.482h-5.253Z"/><path class="e" d="M95.808,288.721h70.156l-17.989-55.765H82.749a3.6,3.6,0,0,0-3.418,4.713Z"/><path class="g" d="M95.808,288.721h73.754v8.994H103a7.2,7.2,0,0,1-7.2-7.2Z"/><path class="g" d="M169.563,288.721h32.38a1.8,1.8,0,0,1,1.8,1.8,7.2,7.2,0,0,1-7.2,7.2H169.563Z"/><path class="h" d="M125.922,259.039a4.1,4.1,0,0,1,1.8-3.6,4.065,4.065,0,0,0-3.238-1.727c-1.367,0-2.7.792-3.382.792s-1.763-.792-2.914-.756a4.317,4.317,0,0,0-3.6,2.195,9.282,9.282,0,0,0,1.115,8.922c.756,1.079,1.655,2.267,2.806,2.231s1.547-.72,2.878-.72,1.763.72,2.914.684,1.979-1.079,2.734-2.159a11.621,11.621,0,0,0,1.223-2.518,3.814,3.814,0,0,1-2.339-3.346Z"/><line class="b" y1="1.619" x2="1.619" transform="translate(122.792 247.526)"/><path class="i" d="M95.808,288.721h70.156l-17.989-55.765H82.749a3.6,3.6,0,0,0-3.418,4.713Z"/></g></svg>