<svg id="little-invest" xmlns="http://www.w3.org/2000/svg" viewBox="0 0 136.16 27">
  <defs>
    <style>
      .cls-1, .cls-3 {
        fill: none;
      }

      .cls-1 {
        stroke: #000;
        stroke-width: 2px;
      }

      .cls-2 {
        stroke: none;
      }
    </style>
  </defs>
  <path id="Path_318" data-name="Path 318" d="M37.04,21a2.548,2.548,0,0,1-1.94-.66,2.612,2.612,0,0,1-.62-1.86V6.2h2.56V18.96h1.38V21Zm4.6-11.96a1.554,1.554,0,0,1-1.15-.36,1.265,1.265,0,0,1-.35-.92v-.4a1.265,1.265,0,0,1,.35-.92,2,2,0,0,1,2.29,0,1.246,1.246,0,0,1,.36.92v.4a1.246,1.246,0,0,1-.36.92,1.559,1.559,0,0,1-1.14.36Zm-1.28,1.52h2.56V21H40.36ZM49.14,21a2.723,2.723,0,0,1-2.01-.69,2.665,2.665,0,0,1-.69-1.97V12.6H44.9V10.56h.8a.955.955,0,0,0,.79-.27,1.307,1.307,0,0,0,.21-.81V7.7H49v2.86h2.14V12.6H49v6.36h1.98V21Zm7.36,0a2.723,2.723,0,0,1-2.01-.69,2.665,2.665,0,0,1-.69-1.97V12.6H52.26V10.56h.8a.955.955,0,0,0,.79-.27,1.307,1.307,0,0,0,.21-.81V7.7h2.3v2.86H58.5V12.6H56.36v6.36h1.98V21Zm6.78,0a2.548,2.548,0,0,1-1.94-.66,2.612,2.612,0,0,1-.62-1.86V6.2h2.56V18.96h1.38V21Zm7.54.24a5.21,5.21,0,0,1-2.07-.39,4.285,4.285,0,0,1-1.54-1.1,4.92,4.92,0,0,1-.97-1.72,7.091,7.091,0,0,1-.34-2.27,7.124,7.124,0,0,1,.33-2.24,4.9,4.9,0,0,1,.95-1.71,4.21,4.21,0,0,1,1.52-1.1,5.084,5.084,0,0,1,2.04-.39,4.971,4.971,0,0,1,2.12.42,4.083,4.083,0,0,1,1.48,1.14,4.922,4.922,0,0,1,.87,1.67,6.918,6.918,0,0,1,.29,2.03v.84H68.56v.26a2.584,2.584,0,0,0,.64,1.83,2.467,2.467,0,0,0,1.9.69,2.813,2.813,0,0,0,1.57-.4,4.5,4.5,0,0,0,1.09-1.02l1.38,1.54a4.291,4.291,0,0,1-1.75,1.41A6.1,6.1,0,0,1,70.82,21.24Zm-.04-9a2.051,2.051,0,0,0-1.62.68,2.562,2.562,0,0,0-.6,1.76v.16h4.28v-.18a2.738,2.738,0,0,0-.53-1.75,1.835,1.835,0,0,0-1.53-.67Zm12.98-3.2a1.554,1.554,0,0,1-1.15-.36,1.265,1.265,0,0,1-.35-.92v-.4a1.265,1.265,0,0,1,.35-.92,2,2,0,0,1,2.29,0,1.246,1.246,0,0,1,.36.92v.4a1.246,1.246,0,0,1-.36.92,1.559,1.559,0,0,1-1.14.36Zm-1.28,1.52h2.56V21H82.48ZM88,21V10.56h2.56V12.3h.1a3.341,3.341,0,0,1,1.01-1.41,2.914,2.914,0,0,1,1.91-.57,3.008,3.008,0,0,1,2.48,1.06,4.683,4.683,0,0,1,.86,3.02V21H94.36V14.66a2.892,2.892,0,0,0-.4-1.68,1.51,1.51,0,0,0-1.32-.56,2.688,2.688,0,0,0-.77.11,2.169,2.169,0,0,0-.66.32,1.671,1.671,0,0,0-.47.52,1.428,1.428,0,0,0-.18.73V21Zm13.84,0L98.36,10.56h2.52l1.46,4.5,1.02,3.72h.14l1.02-3.72,1.42-4.5h2.44L104.88,21Zm12.3.24a5.21,5.21,0,0,1-2.07-.39,4.285,4.285,0,0,1-1.54-1.1,4.92,4.92,0,0,1-.97-1.72,7.091,7.091,0,0,1-.34-2.27,7.124,7.124,0,0,1,.33-2.24,4.9,4.9,0,0,1,.95-1.71,4.21,4.21,0,0,1,1.52-1.1,5.084,5.084,0,0,1,2.04-.39,4.971,4.971,0,0,1,2.12.42,4.083,4.083,0,0,1,1.48,1.14,4.922,4.922,0,0,1,.87,1.67,6.918,6.918,0,0,1,.29,2.03v.84h-6.94v.26a2.584,2.584,0,0,0,.64,1.83,2.467,2.467,0,0,0,1.9.69,2.813,2.813,0,0,0,1.57-.4,4.5,4.5,0,0,0,1.09-1.02l1.38,1.54a4.291,4.291,0,0,1-1.75,1.41A6.1,6.1,0,0,1,114.14,21.24Zm-.04-9a2.051,2.051,0,0,0-1.62.68,2.562,2.562,0,0,0-.6,1.76v.16h4.28v-.18a2.738,2.738,0,0,0-.53-1.75A1.835,1.835,0,0,0,114.1,12.24Zm10.4,9a5.6,5.6,0,0,1-2.52-.51,5.8,5.8,0,0,1-1.8-1.41l1.56-1.52a4.737,4.737,0,0,0,1.27,1.04,3.242,3.242,0,0,0,1.59.38,2.179,2.179,0,0,0,1.33-.32,1.055,1.055,0,0,0,.41-.88.949.949,0,0,0-.29-.73,1.841,1.841,0,0,0-.99-.37l-1.04-.14a4.948,4.948,0,0,1-2.59-.97,2.7,2.7,0,0,1-.89-2.19,3.247,3.247,0,0,1,.28-1.37,2.907,2.907,0,0,1,.8-1.04,3.665,3.665,0,0,1,1.25-.66,5.41,5.41,0,0,1,1.63-.23,7.421,7.421,0,0,1,1.35.11,4.908,4.908,0,0,1,1.07.32,4.136,4.136,0,0,1,.88.52,8.263,8.263,0,0,1,.78.69l-1.5,1.5a3.96,3.96,0,0,0-1.1-.8,3.086,3.086,0,0,0-1.4-.32,1.929,1.929,0,0,0-1.21.3.957.957,0,0,0-.37.78.991.991,0,0,0,.31.79,2.146,2.146,0,0,0,1.05.39l1.06.14q3.38.48,3.38,3.08a3.105,3.105,0,0,1-.31,1.39,3.165,3.165,0,0,1-.87,1.08,4.11,4.11,0,0,1-1.35.7,5.852,5.852,0,0,1-1.77.25Zm9.66-.24a2.723,2.723,0,0,1-2.01-.69,2.665,2.665,0,0,1-.69-1.97V12.6h-1.54V10.56h.8a.955.955,0,0,0,.79-.27,1.306,1.306,0,0,0,.21-.81V7.7h2.3v2.86h2.14V12.6h-2.14v6.36H136V21Z"/>
  <g id="Rectangle_2" data-name="Rectangle 2" class="cls-1">
    <rect class="cls-2" width="24" height="27" rx="4"/>
    <rect class="cls-3" x="1" y="1" width="22" height="25" rx="3"/>
  </g>
  <path id="Path_1" data-name="Path 1" d="M11.36,22.24V20.52a5.842,5.842,0,0,1-2.56-.74A7.082,7.082,0,0,1,7,18.26l1.46-1.32a5.618,5.618,0,0,0,1.35,1.22,4.074,4.074,0,0,0,1.69.58V14.26a6.364,6.364,0,0,1-3.12-1.39,3.256,3.256,0,0,1-.96-2.45A3.224,3.224,0,0,1,8.48,7.88a5.055,5.055,0,0,1,2.88-1.14V5h1.7V6.74a5.708,5.708,0,0,1,2.23.64A5.308,5.308,0,0,1,16.94,8.8l-1.48,1.22a4.04,4.04,0,0,0-1.05-.97,3.847,3.847,0,0,0-1.47-.53v4.1l.08.02a12.419,12.419,0,0,1,1.88.62,4.549,4.549,0,0,1,1.27.79,2.663,2.663,0,0,1,.71,1.04,3.911,3.911,0,0,1,.22,1.37,3.719,3.719,0,0,1-1.05,2.7,4.853,4.853,0,0,1-2.99,1.32v1.76ZM15,16.6a1.8,1.8,0,0,0-.44-1.25,3.26,3.26,0,0,0-1.62-.79v4.16A2.63,2.63,0,0,0,14.46,18,1.937,1.937,0,0,0,15,16.6ZM9.5,10.32a1.6,1.6,0,0,0,.49,1.27,3.84,3.84,0,0,0,1.51.71V8.5a2.8,2.8,0,0,0-1.48.6A1.549,1.549,0,0,0,9.5,10.32Z"/>
</svg>
