<svg xmlns="http://www.w3.org/2000/svg" viewBox="0 0 398.584 329"><defs><style>.a{fill:#f0f2ff;}.b,.e{fill:none;}.b,.c,.e,.g{stroke:#4550e5;stroke-linejoin:round;stroke-width:4.529px;}.b,.c,.g{stroke-linecap:round;}.c,.f{fill:#d6daff;}.d,.g{fill:#fff;}</style></defs><g transform="translate(-27.176 -61.974)"><path class="a" d="M407.642,243.136A181.174,181.174,0,1,0,61.418,317.87h330.1a180.63,180.63,0,0,0,16.125-74.734Z"/><line class="b" x2="353.29" transform="translate(49.823 317.871)"/><line class="b" x2="11.323" transform="translate(29.441 317.871)"/><line class="b" x2="11.323" transform="translate(412.172 317.871)"/><path class="c" d="M290.468,197.525l16.26,29.8a22.646,22.646,0,0,1,2.763,10.87v54.352l3.669,3.714a9.059,9.059,0,0,1,2.672,6.386v15.264H290.468Z"/><line class="b" x2="15.853" transform="translate(296.809 283.13)"/><path class="c" d="M125.6,197.525l-16.26,29.8a22.647,22.647,0,0,0-2.763,10.87v54.352l-3.714,3.714a9.059,9.059,0,0,0-2.627,6.386v15.264H125.6Z"/><path class="d" d="M357.819,101.231a6.93,6.93,0,0,0-2.718.544,12.637,12.637,0,0,0-25,0,6.93,6.93,0,0,0-2.718-.544,7.609,7.609,0,1,0,0,15.219h30.437a7.609,7.609,0,1,0,0-15.219Z"/><path class="e" d="M357.819,101.231a6.93,6.93,0,0,0-2.718.544,12.637,12.637,0,0,0-25,0,6.93,6.93,0,0,0-2.718-.544,7.609,7.609,0,1,0,0,15.219h30.437a7.609,7.609,0,1,0,0-15.219Z"/><path class="d" d="M239.739,77.044v79.264H176.328V77.044h-57.07V283.13l3.171,3.171v12.682l-3.171,3.171v15.853H296.809V298.983l-3.171-3.171V286.3l3.171-3.171V77.044Z"/><path class="e" d="M357.819,101.231a6.93,6.93,0,0,0-2.718.544,12.637,12.637,0,0,0-25,0,6.93,6.93,0,0,0-2.718-.544,7.609,7.609,0,1,0,0,15.219h30.437a7.609,7.609,0,1,0,0-15.219Z"/><path class="b" d="M239.739,77.044v79.264H176.328V77.044h-57.07V283.13l3.171,3.171v12.682l-3.171,3.171v15.853H296.809V298.983l-3.171-3.171V286.3l3.171-3.171V77.044Z"/><rect class="c" width="177.551" height="19.023" transform="translate(119.258 238.743)"/><path class="c" d="M300.206,156.308H115.816a1.585,1.585,0,0,0-1.314,2.446h0a28.173,28.173,0,0,1,4.529,15.581v7.338H296.583v-7.338a28.128,28.128,0,0,1,4.529-15.581h0a1.585,1.585,0,0,0-.906-2.446Z"/><path class="c" d="M208.034,270.448h0a25.229,25.229,0,0,0-15.853,23.417v24.141h31.706V293.865a25.319,25.319,0,0,0-15.853-23.417Z"/><path class="c" d="M147.793,276.789h0a25.817,25.817,0,0,0-12.682,23.417v17.8h25.364v-17.8a25.908,25.908,0,0,0-12.682-23.417Z"/><path class="c" d="M147.793,197.525h0a25.817,25.817,0,0,0-12.682,23.417v17.8h25.364v-17.8A25.908,25.908,0,0,0,147.793,197.525Z"/><path class="c" d="M268.274,197.525h0a25.817,25.817,0,0,0-12.682,23.417v17.8H280.82v-17.8a25.908,25.908,0,0,0-12.546-23.417Z"/><path class="c" d="M268.274,276.789h0a25.817,25.817,0,0,0-12.682,23.417v17.8H280.82v-17.8a25.908,25.908,0,0,0-12.546-23.417Z"/><line class="b" y2="41.217" transform="translate(176.328 238.743)"/><line class="b" y2="41.217" transform="translate(239.739 238.743)"/><line class="b" y2="15.853" transform="translate(176.328 181.673)"/><line class="b" y2="15.853" transform="translate(239.739 181.673)"/><path class="c" d="M208.034,191.184h0a25.364,25.364,0,0,0-25.364,25.364v22.194H233.4V216.549A25.364,25.364,0,0,0,208.034,191.184Z"/><circle class="f" cx="15.853" cy="15.853" r="15.853" transform="translate(192.181 200.696)"/><path class="d" d="M219.357,205.542a15.626,15.626,0,0,0-11.323-4.846,15.807,15.807,0,0,0-4.529,31.026Z"/><circle class="b" cx="15.853" cy="15.853" r="15.853" transform="translate(192.181 200.696)"/><line class="b" y2="6.341" transform="translate(176.328 289.471)"/><line class="b" y2="6.341" transform="translate(239.739 289.471)"/><line class="b" y1="19.023" transform="translate(147.793 238.743)"/><line class="b" y1="9.512" transform="translate(131.94 248.254)"/><line class="b" y1="9.512" transform="translate(163.646 248.254)"/><line class="b" y1="19.023" transform="translate(208.034 238.743)"/><line class="b" y1="9.512" transform="translate(192.181 248.254)"/><line class="b" y1="9.512" transform="translate(223.886 248.254)"/><line class="b" y1="19.023" transform="translate(268.274 238.743)"/><line class="b" y1="9.512" transform="translate(252.421 248.254)"/><line class="b" y1="9.512" transform="translate(284.127 248.254)"/><path class="g" d="M144.17,162.2l-2.718-2.718-2.718,2.718a12.32,12.32,0,0,0-3.623,8.787v10.689h12.682V170.983a12.5,12.5,0,0,0-3.623-8.787Z"/><path class="g" d="M177.46,162.2l-2.718-2.718-2.718,2.718a12.32,12.32,0,0,0-3.623,8.787v10.689h12.773V170.983a12.5,12.5,0,0,0-3.714-8.787Z"/><path class="g" d="M210.751,162.2l-2.718-2.718-2.718,2.718a12.32,12.32,0,0,0-3.623,8.787v10.689h12.682V170.983A12.5,12.5,0,0,0,210.751,162.2Z"/><path class="g" d="M244.042,162.2l-2.718-2.718-2.718,2.718a12.32,12.32,0,0,0-3.624,8.787v10.689h12.682V170.983A12.5,12.5,0,0,0,244.042,162.2Z"/><path class="g" d="M271.762,162.2l2.718-2.718L277.2,162.2a12.5,12.5,0,0,1,3.623,8.787v10.689H268.138V170.983a12.32,12.32,0,0,1,3.623-8.787Z"/><line class="b" y2="6.341" transform="translate(160.475 156.308)"/><line class="b" y2="6.341" transform="translate(128.77 156.308)"/><line class="b" y2="6.341" transform="translate(192.181 156.308)"/><line class="b" y2="6.341" transform="translate(223.886 156.308)"/><line class="b" y2="6.341" transform="translate(255.592 156.308)"/><line class="b" y2="6.341" transform="translate(287.297 156.308)"/><path class="f" d="M206.267,295.813h3.623a4.529,4.529,0,0,1,4.529,4.529v17.665H201.738V300.342A4.529,4.529,0,0,1,206.267,295.813Z"/><path class="d" d="M209.891,295.813h-3.623a4.529,4.529,0,0,0-4.529,4.529v17.665h.906l11.5-19.069A4.529,4.529,0,0,0,209.891,295.813Z"/><path class="b" d="M206.267,295.813h3.623a4.529,4.529,0,0,1,4.529,4.529v17.665H201.738V300.342A4.529,4.529,0,0,1,206.267,295.813Z"/><path class="f" d="M135.111,102.409h0a21.65,21.65,0,0,0-6.341,15.355v38.59h12.682v-38.59A21.877,21.877,0,0,0,135.111,102.409Z"/><path class="d" d="M141.452,123.7v-5.933a21.877,21.877,0,0,0-6.341-15.309h0a21.65,21.65,0,0,0-6.341,15.309V144.94Z"/><path class="b" d="M135.111,102.409h0a21.65,21.65,0,0,0-6.341,15.355v38.59h12.682v-38.59A21.877,21.877,0,0,0,135.111,102.409Z"/><path class="f" d="M160.475,102.409h0A21.65,21.65,0,0,0,154,117.763v38.59H166.68v-38.59A21.877,21.877,0,0,0,160.475,102.409Z"/><path class="d" d="M166.816,123.7v-5.933a21.877,21.877,0,0,0-6.341-15.309h0A21.65,21.65,0,0,0,154,117.763V144.94Z"/><path class="b" d="M160.475,102.409h0A21.65,21.65,0,0,0,154,117.763v38.59H166.68v-38.59A21.877,21.877,0,0,0,160.475,102.409Z"/><path class="f" d="M255.592,102.409h0a21.65,21.65,0,0,0-6.477,15.355v38.59H261.8v-38.59a21.877,21.877,0,0,0-6.205-15.355Z"/><path class="d" d="M261.933,123.7v-5.933a21.877,21.877,0,0,0-6.341-15.309h0a21.65,21.65,0,0,0-6.477,15.309V144.94Z"/><path class="b" d="M255.592,102.409h0a21.65,21.65,0,0,0-6.477,15.355v38.59H261.8v-38.59a21.877,21.877,0,0,0-6.205-15.355Z"/><path class="f" d="M280.82,102.409h0a21.65,21.65,0,0,0-6.205,15.355v38.59H287.3v-38.59A21.877,21.877,0,0,0,280.82,102.409Z"/><path class="d" d="M287.3,123.7v-5.933a21.877,21.877,0,0,0-6.477-15.355h0a21.65,21.65,0,0,0-6.205,15.355V144.94Z"/><path class="b" d="M280.82,102.409h0a21.65,21.65,0,0,0-6.205,15.355v38.59H287.3v-38.59A21.877,21.877,0,0,0,280.82,102.409Z"/><line class="b" x2="63.411" transform="translate(116.088 89.727)"/><line class="b" x2="63.411" transform="translate(116.088 77.044)"/><line class="b" x2="63.411" transform="translate(236.568 89.727)"/><line class="b" x2="63.411" transform="translate(236.568 77.044)"/><line class="b" x2="183.892" transform="translate(116.088 181.673)"/><line class="b" x2="209.256" transform="translate(103.405 238.743)"/><line class="b" x1="15.853" transform="translate(103.405 283.13)"/><rect class="c" width="57.07" height="12.682" transform="translate(119.258 77.044)"/><rect class="c" width="57.07" height="12.682" transform="translate(239.739 77.044)"/><line class="b" y2="31.706" transform="translate(208.034 200.696)"/><line class="b" x2="31.706" transform="translate(192.181 216.549)"/><rect class="f" width="25.364" height="19.023" transform="translate(135.111 219.719)"/><path class="d" d="M135.111,219.719v19.023h9.512l11.414-19.023Z"/><rect class="b" width="25.364" height="19.023" transform="translate(135.111 219.719)"/><rect class="f" width="25.364" height="19.023" transform="translate(255.592 219.719)"/><path class="d" d="M255.592,219.719v19.023H265.1l11.414-19.023Z"/><rect class="b" width="25.364" height="19.023" transform="translate(255.592 219.719)"/><rect class="f" width="25.364" height="19.023" transform="translate(135.111 298.983)"/><path class="d" d="M135.111,298.983v19.023h9.512l11.414-19.023Z"/><rect class="b" width="25.364" height="19.023" transform="translate(135.111 298.983)"/><rect class="f" width="25.364" height="19.023" transform="translate(255.592 298.983)"/><path class="d" d="M255.592,298.983v19.023H265.1l11.414-19.023Z"/><rect class="b" width="25.364" height="19.023" transform="translate(255.592 298.983)"/><path class="c" d="M357.819,282.043c0,10.508-3.759,19.612-7.972,19.612s-7.972-9.059-7.972-19.612,7.972-38.183,7.972-38.183S357.819,271.49,357.819,282.043Z"/><line class="b" y2="16.351" transform="translate(349.984 301.655)"/><path class="b" d="M77.905,253.644a12.41,12.41,0,0,1-24.776,0"/><path class="g" d="M57.749,249.115H48.691a2.4,2.4,0,0,1-1.449-.544,1.9,1.9,0,0,0,0,.725l.906,6.749a2.31,2.31,0,0,0,2.265,1.948h5.843a2.219,2.219,0,0,0,2.219-1.948l.906-6.749a1.9,1.9,0,0,0,0-.725,2.174,2.174,0,0,1-1.631.544Z"/><path class="c" d="M53.129,239.331a6.885,6.885,0,0,0-6.839,6.885c0,1.993,1,2.808,2.265,2.808h9.059c1.268,0,2.265-.815,2.265-2.808a6.885,6.885,0,0,0-6.75-6.885Z"/><path class="g" d="M82.525,249.115H73.466a2.174,2.174,0,0,1-1.4-.544,3.533,3.533,0,0,0,0,.725l.906,6.749a2.31,2.31,0,0,0,2.265,1.948h5.843a2.219,2.219,0,0,0,2.219-1.948l.725-6.93a3.533,3.533,0,0,0,0-.725,2.174,2.174,0,0,1-1.495.725Z"/><path class="c" d="M77.905,239.331a6.885,6.885,0,0,0-6.839,6.885c0,1.993,1,2.808,2.265,2.808h9.059c1.268,0,2.265-.815,2.265-2.808a6.885,6.885,0,0,0-6.75-6.885Z"/><line class="b" y2="52.042" transform="translate(65.54 265.964)"/><ellipse class="a" cx="61.146" cy="6.794" rx="61.146" ry="6.794" transform="translate(88.187 377.386)"/><path class="g" d="M173.022,310.9v15.943H97.291a4.529,4.529,0,0,0-4.529,4.529V368.6a4.529,4.529,0,0,0,3.85,4.529l10.825,1.676H198.93a4.529,4.529,0,0,0,4.529-4.529v-35.1a67.936,67.936,0,0,0-.679-9.6l-1.631-11.278a9.059,9.059,0,0,0-9.059-7.79H177.551A4.529,4.529,0,0,0,173.022,310.9Z"/><path class="c" d="M126.052,374.759a8.289,8.289,0,1,1-8.289-8.289,8.289,8.289,0,0,1,8.289,8.289Z"/><path class="c" d="M185.387,374.759a8.289,8.289,0,1,1-8.289-8.289A8.289,8.289,0,0,1,185.387,374.759Z"/><rect class="c" width="15.853" height="30.03" transform="translate(137.058 344.73)"/><rect class="f" width="25.002" height="13.769" transform="translate(102.907 344.73)"/><rect class="b" width="25.002" height="13.769" transform="translate(102.907 344.73)"/><rect class="f" width="15.853" height="13.769" transform="translate(161.879 344.73)"/><rect class="b" width="15.853" height="13.769" transform="translate(161.879 344.73)"/><rect class="f" width="15.853" height="13.769" transform="translate(187.606 344.73)"/><rect class="b" width="15.853" height="13.769" transform="translate(187.606 344.73)"/><path class="f" d="M187.334,327.156h15.626l-1.585-11.233H187.334a4.529,4.529,0,0,0-4.529,4.529v2.265a4.529,4.529,0,0,0,4.529,4.439Z"/><path class="b" d="M187.334,327.156h15.626l-1.585-11.233H187.334a4.529,4.529,0,0,0-4.529,4.529v2.265a4.529,4.529,0,0,0,4.529,4.439Z"/><path class="b" d="M103.451,318.006h69.571v8.832h-74.1v-4.3A4.529,4.529,0,0,1,103.451,318.006Z"/><rect class="b" width="10.553" height="8.832" transform="translate(111.558 318.006)"/><rect class="b" width="10.553" height="8.832" transform="translate(132.121 318.006)"/><rect class="b" width="10.553" height="8.832" transform="translate(152.911 318.006)"/><rect class="c" width="15.853" height="13.769" transform="translate(137.058 344.73)"/><line class="b" x2="90.361" transform="translate(103.768 335.807)"/></g></svg>