<svg xmlns="http://www.w3.org/2000/svg" viewBox="0 0 50 50"><defs><style>.a{fill:#45d;}</style></defs><rect class="a" width="50" height="50" rx="4"/><path d="M42.676,14.844a7.031,7.031,0,0,1-3.906,1.172,7.031,7.031,0,0,0,3.125-3.906A7.031,7.031,0,0,1,37.5,13.77a7.031,7.031,0,0,0-11.914,6.348,19.531,19.531,0,0,1-14.16-7.227,7.031,7.031,0,0,0,2.148,9.18,7.031,7.031,0,0,1-3.125-.684,7.031,7.031,0,0,0,5.469,6.738,7.031,7.031,0,0,1-3.125.1,7.031,7.031,0,0,0,6.543,4.883A19.531,19.531,0,0,1,9.082,35.938a19.531,19.531,0,0,0,30.176-17.48,19.531,19.531,0,0,0,3.418-3.613"/></svg>